<mxfile host="app.diagrams.net" agent="Mozilla/5.0 (Macintosh; Intel Mac OS X 10_15_7) AppleWebKit/537.36 (KHTML, like Gecko) Chrome/131.0.0.0 Safari/537.36 Edg/131.0.0.0" version="24.9.2">
  <diagram name="Page-1" id="0XS7_kBx3rztq7k8VAb1">
    <mxGraphModel dx="1050" dy="579" grid="1" gridSize="10" guides="1" tooltips="1" connect="1" arrows="1" fold="1" page="1" pageScale="1" pageWidth="850" pageHeight="1100" math="0" shadow="0">
      <root>
        <mxCell id="0" />
        <mxCell id="1" parent="0" />
        <mxCell id="AuIzT4Dd1e3ndBJaWB5E-5" style="rounded=0;orthogonalLoop=1;jettySize=auto;html=1;exitX=0.5;exitY=0;exitDx=0;exitDy=0;entryX=0.5;entryY=1;entryDx=0;entryDy=0;endArrow=none;endFill=0;" edge="1" parent="1" source="AuIzT4Dd1e3ndBJaWB5E-1" target="AuIzT4Dd1e3ndBJaWB5E-4">
          <mxGeometry relative="1" as="geometry" />
        </mxCell>
        <mxCell id="AuIzT4Dd1e3ndBJaWB5E-7" style="edgeStyle=none;shape=connector;rounded=0;orthogonalLoop=1;jettySize=auto;html=1;exitX=0.5;exitY=0;exitDx=0;exitDy=0;entryX=0.5;entryY=1;entryDx=0;entryDy=0;strokeColor=default;align=center;verticalAlign=middle;fontFamily=Helvetica;fontSize=11;fontColor=default;labelBackgroundColor=default;endArrow=none;endFill=0;" edge="1" parent="1" source="AuIzT4Dd1e3ndBJaWB5E-1" target="AuIzT4Dd1e3ndBJaWB5E-6">
          <mxGeometry relative="1" as="geometry" />
        </mxCell>
        <mxCell id="AuIzT4Dd1e3ndBJaWB5E-9" style="edgeStyle=none;shape=connector;rounded=0;orthogonalLoop=1;jettySize=auto;html=1;exitX=0.5;exitY=0;exitDx=0;exitDy=0;strokeColor=default;align=center;verticalAlign=middle;fontFamily=Helvetica;fontSize=11;fontColor=default;labelBackgroundColor=default;endArrow=none;endFill=0;" edge="1" parent="1" source="AuIzT4Dd1e3ndBJaWB5E-1" target="AuIzT4Dd1e3ndBJaWB5E-8">
          <mxGeometry relative="1" as="geometry" />
        </mxCell>
        <mxCell id="AuIzT4Dd1e3ndBJaWB5E-12" style="edgeStyle=none;shape=connector;rounded=0;orthogonalLoop=1;jettySize=auto;html=1;exitX=0.5;exitY=0;exitDx=0;exitDy=0;entryX=0;entryY=0.5;entryDx=0;entryDy=0;strokeColor=default;align=center;verticalAlign=middle;fontFamily=Helvetica;fontSize=11;fontColor=default;labelBackgroundColor=default;endArrow=none;endFill=0;" edge="1" parent="1" source="AuIzT4Dd1e3ndBJaWB5E-1" target="AuIzT4Dd1e3ndBJaWB5E-11">
          <mxGeometry relative="1" as="geometry" />
        </mxCell>
        <mxCell id="AuIzT4Dd1e3ndBJaWB5E-24" style="edgeStyle=none;shape=connector;rounded=0;orthogonalLoop=1;jettySize=auto;html=1;exitX=1;exitY=0.5;exitDx=0;exitDy=0;entryX=0;entryY=0.5;entryDx=0;entryDy=0;strokeColor=default;align=center;verticalAlign=middle;fontFamily=Helvetica;fontSize=11;fontColor=default;labelBackgroundColor=default;endArrow=none;endFill=0;startArrow=ERmandOne;startFill=0;" edge="1" parent="1" source="AuIzT4Dd1e3ndBJaWB5E-1" target="AuIzT4Dd1e3ndBJaWB5E-23">
          <mxGeometry relative="1" as="geometry" />
        </mxCell>
        <mxCell id="AuIzT4Dd1e3ndBJaWB5E-1" value="Customer" style="whiteSpace=wrap;html=1;align=center;" vertex="1" parent="1">
          <mxGeometry x="195" y="280" width="100" height="40" as="geometry" />
        </mxCell>
        <mxCell id="AuIzT4Dd1e3ndBJaWB5E-14" style="edgeStyle=none;shape=connector;rounded=0;orthogonalLoop=1;jettySize=auto;html=1;exitX=1;exitY=0.5;exitDx=0;exitDy=0;entryX=0.5;entryY=1;entryDx=0;entryDy=0;strokeColor=default;align=center;verticalAlign=middle;fontFamily=Helvetica;fontSize=11;fontColor=default;labelBackgroundColor=default;endArrow=none;endFill=0;" edge="1" parent="1" source="AuIzT4Dd1e3ndBJaWB5E-2" target="AuIzT4Dd1e3ndBJaWB5E-13">
          <mxGeometry relative="1" as="geometry" />
        </mxCell>
        <mxCell id="AuIzT4Dd1e3ndBJaWB5E-15" style="edgeStyle=none;shape=connector;rounded=0;orthogonalLoop=1;jettySize=auto;html=1;exitX=1;exitY=0.5;exitDx=0;exitDy=0;strokeColor=default;align=center;verticalAlign=middle;fontFamily=Helvetica;fontSize=11;fontColor=default;labelBackgroundColor=default;endArrow=none;endFill=0;" edge="1" parent="1" source="AuIzT4Dd1e3ndBJaWB5E-2" target="AuIzT4Dd1e3ndBJaWB5E-16">
          <mxGeometry relative="1" as="geometry">
            <mxPoint x="720" y="260" as="targetPoint" />
          </mxGeometry>
        </mxCell>
        <mxCell id="AuIzT4Dd1e3ndBJaWB5E-26" style="edgeStyle=none;shape=connector;rounded=0;orthogonalLoop=1;jettySize=auto;html=1;exitX=1;exitY=0.5;exitDx=0;exitDy=0;strokeColor=default;align=center;verticalAlign=middle;fontFamily=Helvetica;fontSize=11;fontColor=default;labelBackgroundColor=default;endArrow=none;endFill=0;entryX=0;entryY=0.5;entryDx=0;entryDy=0;" edge="1" parent="1" source="AuIzT4Dd1e3ndBJaWB5E-2" target="AuIzT4Dd1e3ndBJaWB5E-27">
          <mxGeometry relative="1" as="geometry">
            <mxPoint x="740" y="300" as="targetPoint" />
          </mxGeometry>
        </mxCell>
        <mxCell id="AuIzT4Dd1e3ndBJaWB5E-31" style="edgeStyle=none;shape=connector;rounded=0;orthogonalLoop=1;jettySize=auto;html=1;exitX=0.5;exitY=0;exitDx=0;exitDy=0;entryX=0.5;entryY=1;entryDx=0;entryDy=0;strokeColor=default;align=center;verticalAlign=middle;fontFamily=Helvetica;fontSize=11;fontColor=default;labelBackgroundColor=default;endArrow=none;endFill=0;startArrow=ERmandOne;startFill=0;" edge="1" parent="1" source="AuIzT4Dd1e3ndBJaWB5E-2" target="AuIzT4Dd1e3ndBJaWB5E-29">
          <mxGeometry relative="1" as="geometry" />
        </mxCell>
        <mxCell id="AuIzT4Dd1e3ndBJaWB5E-2" value="Account" style="whiteSpace=wrap;html=1;align=center;" vertex="1" parent="1">
          <mxGeometry x="600" y="280" width="100" height="40" as="geometry" />
        </mxCell>
        <mxCell id="AuIzT4Dd1e3ndBJaWB5E-4" value="&lt;u&gt;ID&lt;/u&gt;" style="ellipse;whiteSpace=wrap;html=1;align=center;" vertex="1" parent="1">
          <mxGeometry x="150" y="210" width="55" height="20" as="geometry" />
        </mxCell>
        <mxCell id="AuIzT4Dd1e3ndBJaWB5E-6" value="name" style="ellipse;whiteSpace=wrap;html=1;align=center;" vertex="1" parent="1">
          <mxGeometry x="215" y="210" width="55" height="20" as="geometry" />
        </mxCell>
        <mxCell id="AuIzT4Dd1e3ndBJaWB5E-8" value="address" style="ellipse;whiteSpace=wrap;html=1;align=center;" vertex="1" parent="1">
          <mxGeometry x="275" y="210" width="55" height="20" as="geometry" />
        </mxCell>
        <mxCell id="AuIzT4Dd1e3ndBJaWB5E-11" value="phone" style="ellipse;whiteSpace=wrap;html=1;align=center;" vertex="1" parent="1">
          <mxGeometry x="305" y="250" width="55" height="20" as="geometry" />
        </mxCell>
        <mxCell id="AuIzT4Dd1e3ndBJaWB5E-13" value="&lt;u&gt;number&lt;/u&gt;" style="ellipse;whiteSpace=wrap;html=1;align=center;fontFamily=Helvetica;fontSize=11;fontColor=default;labelBackgroundColor=default;" vertex="1" parent="1">
          <mxGeometry x="750" y="220" width="70" height="30" as="geometry" />
        </mxCell>
        <mxCell id="AuIzT4Dd1e3ndBJaWB5E-16" value="balance" style="ellipse;whiteSpace=wrap;html=1;align=center;fontFamily=Helvetica;fontSize=11;fontColor=default;labelBackgroundColor=default;" vertex="1" parent="1">
          <mxGeometry x="760" y="280" width="70" height="30" as="geometry" />
        </mxCell>
        <mxCell id="AuIzT4Dd1e3ndBJaWB5E-17" value="Saving" style="whiteSpace=wrap;html=1;align=center;fontFamily=Helvetica;fontSize=11;fontColor=default;labelBackgroundColor=default;" vertex="1" parent="1">
          <mxGeometry x="540" y="410" width="100" height="40" as="geometry" />
        </mxCell>
        <mxCell id="AuIzT4Dd1e3ndBJaWB5E-18" value="Checking" style="whiteSpace=wrap;html=1;align=center;fontFamily=Helvetica;fontSize=11;fontColor=default;labelBackgroundColor=default;" vertex="1" parent="1">
          <mxGeometry x="660" y="410" width="100" height="40" as="geometry" />
        </mxCell>
        <mxCell id="AuIzT4Dd1e3ndBJaWB5E-22" style="edgeStyle=none;shape=connector;rounded=0;orthogonalLoop=1;jettySize=auto;html=1;exitX=1;exitY=0.5;exitDx=0;exitDy=0;entryX=0.5;entryY=1;entryDx=0;entryDy=0;strokeColor=default;align=center;verticalAlign=middle;fontFamily=Helvetica;fontSize=11;fontColor=default;labelBackgroundColor=default;endArrow=none;endFill=0;" edge="1" parent="1" source="AuIzT4Dd1e3ndBJaWB5E-19" target="AuIzT4Dd1e3ndBJaWB5E-2">
          <mxGeometry relative="1" as="geometry" />
        </mxCell>
        <mxCell id="AuIzT4Dd1e3ndBJaWB5E-19" value="" style="triangle;whiteSpace=wrap;html=1;fontFamily=Helvetica;fontSize=11;fontColor=default;labelBackgroundColor=default;rotation=-90;" vertex="1" parent="1">
          <mxGeometry x="635" y="330" width="30" height="40" as="geometry" />
        </mxCell>
        <mxCell id="AuIzT4Dd1e3ndBJaWB5E-20" style="edgeStyle=none;shape=connector;rounded=0;orthogonalLoop=1;jettySize=auto;html=1;exitX=0.5;exitY=0;exitDx=0;exitDy=0;entryX=0.02;entryY=-0.005;entryDx=0;entryDy=0;entryPerimeter=0;strokeColor=default;align=center;verticalAlign=middle;fontFamily=Helvetica;fontSize=11;fontColor=default;labelBackgroundColor=default;endArrow=none;endFill=0;" edge="1" parent="1" source="AuIzT4Dd1e3ndBJaWB5E-17" target="AuIzT4Dd1e3ndBJaWB5E-19">
          <mxGeometry relative="1" as="geometry" />
        </mxCell>
        <mxCell id="AuIzT4Dd1e3ndBJaWB5E-21" style="edgeStyle=none;shape=connector;rounded=0;orthogonalLoop=1;jettySize=auto;html=1;exitX=0.5;exitY=0;exitDx=0;exitDy=0;entryX=-0.013;entryY=1.045;entryDx=0;entryDy=0;entryPerimeter=0;strokeColor=default;align=center;verticalAlign=middle;fontFamily=Helvetica;fontSize=11;fontColor=default;labelBackgroundColor=default;endArrow=none;endFill=0;" edge="1" parent="1" source="AuIzT4Dd1e3ndBJaWB5E-18" target="AuIzT4Dd1e3ndBJaWB5E-19">
          <mxGeometry relative="1" as="geometry" />
        </mxCell>
        <mxCell id="AuIzT4Dd1e3ndBJaWB5E-25" style="edgeStyle=none;shape=connector;rounded=0;orthogonalLoop=1;jettySize=auto;html=1;exitX=1;exitY=0.5;exitDx=0;exitDy=0;strokeColor=default;align=center;verticalAlign=middle;fontFamily=Helvetica;fontSize=11;fontColor=default;labelBackgroundColor=default;endArrow=ERoneToMany;endFill=0;" edge="1" parent="1" source="AuIzT4Dd1e3ndBJaWB5E-23" target="AuIzT4Dd1e3ndBJaWB5E-2">
          <mxGeometry relative="1" as="geometry" />
        </mxCell>
        <mxCell id="AuIzT4Dd1e3ndBJaWB5E-23" value="owns" style="shape=rhombus;perimeter=rhombusPerimeter;whiteSpace=wrap;html=1;align=center;fontFamily=Helvetica;fontSize=11;fontColor=default;labelBackgroundColor=default;" vertex="1" parent="1">
          <mxGeometry x="390" y="270" width="120" height="60" as="geometry" />
        </mxCell>
        <mxCell id="AuIzT4Dd1e3ndBJaWB5E-27" value="type" style="ellipse;whiteSpace=wrap;html=1;align=center;fontFamily=Helvetica;fontSize=11;fontColor=default;labelBackgroundColor=default;" vertex="1" parent="1">
          <mxGeometry x="730" y="330" width="70" height="30" as="geometry" />
        </mxCell>
        <mxCell id="AuIzT4Dd1e3ndBJaWB5E-39" style="edgeStyle=none;shape=connector;rounded=0;orthogonalLoop=1;jettySize=auto;html=1;exitX=0.25;exitY=0;exitDx=0;exitDy=0;entryX=0.5;entryY=1;entryDx=0;entryDy=0;strokeColor=default;align=center;verticalAlign=middle;fontFamily=Helvetica;fontSize=11;fontColor=default;labelBackgroundColor=default;endArrow=none;endFill=0;" edge="1" parent="1" source="AuIzT4Dd1e3ndBJaWB5E-28" target="AuIzT4Dd1e3ndBJaWB5E-33">
          <mxGeometry relative="1" as="geometry" />
        </mxCell>
        <mxCell id="AuIzT4Dd1e3ndBJaWB5E-40" style="edgeStyle=none;shape=connector;rounded=0;orthogonalLoop=1;jettySize=auto;html=1;entryX=0.5;entryY=1;entryDx=0;entryDy=0;strokeColor=default;align=center;verticalAlign=middle;fontFamily=Helvetica;fontSize=11;fontColor=default;labelBackgroundColor=default;endArrow=none;endFill=0;exitX=0.5;exitY=0;exitDx=0;exitDy=0;" edge="1" parent="1" source="AuIzT4Dd1e3ndBJaWB5E-28" target="AuIzT4Dd1e3ndBJaWB5E-34">
          <mxGeometry relative="1" as="geometry">
            <mxPoint x="700" y="110" as="sourcePoint" />
          </mxGeometry>
        </mxCell>
        <mxCell id="AuIzT4Dd1e3ndBJaWB5E-42" style="edgeStyle=none;shape=connector;rounded=0;orthogonalLoop=1;jettySize=auto;html=1;exitX=1;exitY=0.25;exitDx=0;exitDy=0;entryX=0;entryY=0.5;entryDx=0;entryDy=0;strokeColor=default;align=center;verticalAlign=middle;fontFamily=Helvetica;fontSize=11;fontColor=default;labelBackgroundColor=default;endArrow=none;endFill=0;" edge="1" parent="1" source="AuIzT4Dd1e3ndBJaWB5E-28" target="AuIzT4Dd1e3ndBJaWB5E-38">
          <mxGeometry relative="1" as="geometry" />
        </mxCell>
        <mxCell id="AuIzT4Dd1e3ndBJaWB5E-43" style="edgeStyle=none;shape=connector;rounded=0;orthogonalLoop=1;jettySize=auto;html=1;exitX=0;exitY=0.25;exitDx=0;exitDy=0;entryX=1;entryY=0.5;entryDx=0;entryDy=0;strokeColor=default;align=center;verticalAlign=middle;fontFamily=Helvetica;fontSize=11;fontColor=default;labelBackgroundColor=default;endArrow=none;endFill=0;" edge="1" parent="1" source="AuIzT4Dd1e3ndBJaWB5E-28" target="AuIzT4Dd1e3ndBJaWB5E-36">
          <mxGeometry relative="1" as="geometry" />
        </mxCell>
        <mxCell id="AuIzT4Dd1e3ndBJaWB5E-44" style="edgeStyle=none;shape=connector;rounded=0;orthogonalLoop=1;jettySize=auto;html=1;exitX=0;exitY=0.5;exitDx=0;exitDy=0;entryX=1;entryY=0;entryDx=0;entryDy=0;strokeColor=default;align=center;verticalAlign=middle;fontFamily=Helvetica;fontSize=11;fontColor=default;labelBackgroundColor=default;endArrow=none;endFill=0;" edge="1" parent="1" source="AuIzT4Dd1e3ndBJaWB5E-28" target="AuIzT4Dd1e3ndBJaWB5E-37">
          <mxGeometry relative="1" as="geometry" />
        </mxCell>
        <mxCell id="AuIzT4Dd1e3ndBJaWB5E-28" value="Transaction" style="whiteSpace=wrap;html=1;align=center;" vertex="1" parent="1">
          <mxGeometry x="600" y="130" width="100" height="40" as="geometry" />
        </mxCell>
        <mxCell id="AuIzT4Dd1e3ndBJaWB5E-32" style="edgeStyle=none;shape=connector;rounded=0;orthogonalLoop=1;jettySize=auto;html=1;exitX=0.5;exitY=0;exitDx=0;exitDy=0;strokeColor=default;align=center;verticalAlign=middle;fontFamily=Helvetica;fontSize=11;fontColor=default;labelBackgroundColor=default;endArrow=ERzeroToMany;endFill=0;entryX=0.5;entryY=1;entryDx=0;entryDy=0;" edge="1" parent="1" source="AuIzT4Dd1e3ndBJaWB5E-29" target="AuIzT4Dd1e3ndBJaWB5E-28">
          <mxGeometry relative="1" as="geometry">
            <mxPoint x="650" y="180" as="targetPoint" />
          </mxGeometry>
        </mxCell>
        <mxCell id="AuIzT4Dd1e3ndBJaWB5E-29" value="performs" style="shape=rhombus;perimeter=rhombusPerimeter;whiteSpace=wrap;html=1;align=center;fontFamily=Helvetica;fontSize=11;fontColor=default;labelBackgroundColor=default;" vertex="1" parent="1">
          <mxGeometry x="610" y="210" width="80" height="40" as="geometry" />
        </mxCell>
        <mxCell id="AuIzT4Dd1e3ndBJaWB5E-33" value="&lt;u&gt;ID&lt;/u&gt;" style="ellipse;whiteSpace=wrap;html=1;align=center;fontFamily=Helvetica;fontSize=11;fontColor=default;labelBackgroundColor=default;" vertex="1" parent="1">
          <mxGeometry x="535" y="70" width="65" height="30" as="geometry" />
        </mxCell>
        <mxCell id="AuIzT4Dd1e3ndBJaWB5E-34" value="code" style="ellipse;whiteSpace=wrap;html=1;align=center;fontFamily=Helvetica;fontSize=11;fontColor=default;labelBackgroundColor=default;" vertex="1" parent="1">
          <mxGeometry x="610" y="70" width="65" height="30" as="geometry" />
        </mxCell>
        <mxCell id="AuIzT4Dd1e3ndBJaWB5E-35" value="amount" style="ellipse;whiteSpace=wrap;html=1;align=center;fontFamily=Helvetica;fontSize=11;fontColor=default;labelBackgroundColor=default;" vertex="1" parent="1">
          <mxGeometry x="685" y="70" width="65" height="30" as="geometry" />
        </mxCell>
        <mxCell id="AuIzT4Dd1e3ndBJaWB5E-36" value="date" style="ellipse;whiteSpace=wrap;html=1;align=center;fontFamily=Helvetica;fontSize=11;fontColor=default;labelBackgroundColor=default;" vertex="1" parent="1">
          <mxGeometry x="500" y="100" width="65" height="30" as="geometry" />
        </mxCell>
        <mxCell id="AuIzT4Dd1e3ndBJaWB5E-37" value="time" style="ellipse;whiteSpace=wrap;html=1;align=center;fontFamily=Helvetica;fontSize=11;fontColor=default;labelBackgroundColor=default;" vertex="1" parent="1">
          <mxGeometry x="490" y="140" width="65" height="30" as="geometry" />
        </mxCell>
        <mxCell id="AuIzT4Dd1e3ndBJaWB5E-38" value="description" style="ellipse;whiteSpace=wrap;html=1;align=center;fontFamily=Helvetica;fontSize=11;fontColor=default;labelBackgroundColor=default;" vertex="1" parent="1">
          <mxGeometry x="750" y="110" width="65" height="30" as="geometry" />
        </mxCell>
        <mxCell id="AuIzT4Dd1e3ndBJaWB5E-41" style="edgeStyle=none;shape=connector;rounded=0;orthogonalLoop=1;jettySize=auto;html=1;exitX=0.75;exitY=0;exitDx=0;exitDy=0;entryX=0.397;entryY=0.98;entryDx=0;entryDy=0;entryPerimeter=0;strokeColor=default;align=center;verticalAlign=middle;fontFamily=Helvetica;fontSize=11;fontColor=default;labelBackgroundColor=default;endArrow=none;endFill=0;" edge="1" parent="1" source="AuIzT4Dd1e3ndBJaWB5E-28" target="AuIzT4Dd1e3ndBJaWB5E-35">
          <mxGeometry relative="1" as="geometry" />
        </mxCell>
      </root>
    </mxGraphModel>
  </diagram>
</mxfile>
